<svg xmlns="http://www.w3.org/2000/svg" viewBox="0 0 24 24">
  <circle cx="9" cy="9" r="3.5" fill="currentColor" opacity="0.9" />
  <g stroke="currentColor" stroke-width="1.5" stroke-linecap="round" opacity="0.75" fill="none">
    <path d="M9 3.5V2" />
    <path d="M9 16v1.5" />
    <path d="M3.5 9H2" />
    <path d="M16 9h1.5" />
    <path d="M13.6 4.4 14.7 3.3" />
    <path d="M3.3 14.7 4.4 13.6" />
    <path d="M4.4 4.4 3.3 3.3" />
    <path d="M14.7 14.7 13.6 13.6" />
  </g>
  <path
    d="M13.5 11.5a5 5 0 0 1 4.9 4.3c0.05 0.36-0.2 0.7-0.56 0.7H6.1a0.6 0.6 0 0 1-0.58-0.77A4.5 4.5 0 0 1 10 11.5h3.5Z"
    fill="currentColor"
    opacity="0.7"
  />
</svg>
